# xmcd CD database file
#
# Track frame offsets:
#	150
#	18478
#	31329
#	44828
#	58146
#	74351
#	89905
#	103511
#	116149
#	127327
#	142043
#	155428
#	167773
#	179668
#	190702
#	201601
#	210066
#	216354
#
# Disc length: 2989 seconds
#
# Revision: 0
# Processed by: cddbd v1.5.2PL0 Copyright (c) Steve Scherf et al.
# Submitted via: CDex 1.51
#
DISCID=230bab12
DTITLE=Vanesca Pinheiro - O Melhor do Forró
DYEAR=2007
DGENRE=Country
TTITLE0=A natureza das coisas - Acciole Neto
TTITLE1=Esperando na janela - Targino Gondim - Manuca - Raimundo do Acordeon
TTITLE2=Feira de mangaio - Sivuca - GlorinhaGadelha
TTITLE3=Na base da chinela - Jackson do Pandeiro - Raul Cavalcante
TTITLE4=Lembrança de um beijo - Acciole Neto
TTITLE5=Espumas ao vento - Acciole Neto
TTITLE6=Ai que saudade d'ocê - Vital Farias
TTITLE7=Qui nem jiló - Luiz Gonzaga - José Marcolino
TTITLE8=O xote das meninas - Luiz Gonzaga Zé Dantas
TTITLE9=Numa sala de reboco - Luiz Gonzaga - José Marcolino
TTITLE10=Jeito manhoso - Nando Cordel
TTITLE11=Eu só quero um xodó - Dominguinhos - Anastácia
TTITLE12=A vida de viajante - Luiz Gonzaga - Hervê Cordovil
TTITLE13=Sobradinho - Luiz Carlos Sá - Guarabyra
TTITLE14=Onde tu tá neném - Luiz Bandeira
TTITLE15=Pagode russo - Luiz Gonzaga - João Silva
TTITLE16=Na emenda - Manoel Euzébio - Juarez Santiago
TTITLE17=Fogaréu - Walter Quieroz
EXTD=YEAR: 2007
EXTT0=
EXTT1=
EXTT2=
EXTT3=
EXTT4=
EXTT5=
EXTT6=
EXTT7=
EXTT8=
EXTT9=
EXTT10=
EXTT11=
EXTT12=
EXTT13=
EXTT14=
EXTT15=
EXTT16=
EXTT17=
PLAYORDER=
